<svg xmlns="http://www.w3.org/2000/svg" width="24" height="24" viewBox="0 0 24 24">
    <path fill="#E9E2D8" fill-rule="evenodd" d="M12.002 0C5.373 0 0 5.373 0 12.002 0 18.627 5.373 24 12.002 24 18.627 24 24 18.627 24 12.002 24 5.373 18.627 0 12.002 0zM17 17.4c0 .363-.168.6-.507.6h-2.854v-4.54h1.451l.22-1.946H13.64v-1.012c0-.52.131-.934.834-.934h1V8.02c-.306-.023-.78-.072-1.4-.072-1.29 0-2.267.837-2.267 2.374v1.19h-1.528v1.946h1.528V18H6.513C6.171 18 6 17.763 6 17.4V6.808C6 6.444 6.171 6 6.513 6h9.98c.339 0 .507.444.507.808V17.4z"/>
</svg>
