<svg xmlns="http://www.w3.org/2000/svg" width="24" height="24" viewBox="0 0 24 24">
    <path fill="#E9E2D8" fill-rule="evenodd" d="M24 12c0 6.627-5.373 12-12 12S0 18.627 0 12 5.373 0 12 0s12 5.373 12 12zm-12 3a3 3 0 1 0 0-6 3 3 0 0 0 0 6zm0-.947a2.053 2.053 0 1 0 0-4.106 2.053 2.053 0 0 0 0 4.106zm-2.526-6.79c-1.221 0-2.21.99-2.21 2.21v5.053c0 1.221.989 2.21 2.21 2.21h5.052c1.221 0 2.21-.989 2.21-2.21V9.474c0-1.221-.989-2.21-2.21-2.21H9.474zm0-.947h5.052a3.158 3.158 0 0 1 3.158 3.158v5.052a3.158 3.158 0 0 1-3.158 3.158H9.474a3.158 3.158 0 0 1-3.158-3.158V9.474a3.158 3.158 0 0 1 3.158-3.158zm5.368 3.158a.632.632 0 1 0 0-1.263.632.632 0 0 0 0 1.263z"/>
</svg>
