<svg xmlns="http://www.w3.org/2000/svg" width="496" height="845" viewBox="0 0 496 845">
    <g fill="#FFF" fill-rule="evenodd">
        <path stroke="#FFF" stroke-width=".5" d="M259.056 1l-1.947 2.938L.642 123.241l107.35 105.203L7.018 380.472l-3.97 1.885L232.12 607.92l.004-.003 1.38 1.366 1.99-2.908 252.811-115.846-102.91-104.077 105.614-154.94 4.104-1.88-1.702-1.65v-.003L259.056 1zM117.852 227.407L260.345 12.879 481.77 227.342l-174.61 79.984-44.737-45.24-1.905-1.936-73.606 34.935-69.059-67.678zm-103.98-101.9L249.016 16.119 112.295 221.961l-98.423-96.453zm99.677 108.386l66.007 64.683-159.14 75.535 93.133-140.218zm199.328 79.214l164.685-75.436-97.642 143.244-67.043-67.808zM192.72 300.782l66.163-31.405 40.88 41.341-66.04 30.249-41.003-40.185zM16.186 384.567l169.18-80.298 44.877 43.986 1.886 1.84 73.35-33.6 70.057 70.85-143.193 210.07L16.186 384.567zm364.824 8.318l94.188 95.252-231.38 106.023L381.01 392.885z"/>
        <path d="M121.845 818.43v23.718H11.923v-18.867l68.97-83.196H13.36v-23.72H119.15v18.868L50.36 818.429h71.485zm55.68-74.392c14.967 0 26.462 3.564 34.485 10.691 8.023 7.128 12.034 17.88 12.034 32.255v55.164h-26.223V830.11c-5.269 8.985-15.087 13.477-29.456 13.477-7.424 0-13.86-1.258-19.309-3.774-5.448-2.515-9.609-5.99-12.483-10.422-2.874-4.432-4.31-9.463-4.31-15.094 0-8.984 3.382-16.052 10.148-21.203 6.765-5.151 17.212-7.727 31.342-7.727h22.272c0-6.11-1.856-10.81-5.568-14.105-3.712-3.295-9.28-4.942-16.704-4.942-5.149 0-10.208.809-15.177 2.426-4.97 1.617-9.19 3.804-12.663 6.559l-10.058-19.586c5.268-3.714 11.585-6.589 18.949-8.625 7.364-2.037 14.938-3.055 22.72-3.055zm-2.156 80.68c4.79 0 9.04-1.108 12.753-3.324 3.712-2.216 6.346-5.48 7.903-9.793v-9.883h-19.219c-11.495 0-17.242 3.774-17.242 11.32 0 3.594 1.407 6.44 4.22 8.536 2.814 2.096 6.676 3.144 11.585 3.144zm160.932-47.438h26.583v51.032c-6.825 5.151-14.728 9.105-23.709 11.86-8.98 2.755-18.02 4.133-27.121 4.133-13.052 0-24.786-2.786-35.204-8.356s-18.59-13.297-24.517-23.18-8.89-21.053-8.89-33.512 2.963-23.63 8.89-33.512c5.927-9.883 14.16-17.61 24.697-23.18 10.537-5.57 22.391-8.356 35.563-8.356 11.016 0 21.014 1.857 29.995 5.57 8.98 3.714 16.524 9.105 22.63 16.173l-18.679 17.25c-8.98-9.464-19.817-14.196-32.51-14.196-8.022 0-15.147 1.678-21.373 5.032-6.227 3.354-11.076 8.086-14.549 14.195-3.472 6.11-5.208 13.118-5.208 21.024 0 7.787 1.736 14.734 5.208 20.844 3.473 6.11 8.292 10.871 14.459 14.285 6.167 3.414 13.201 5.121 21.104 5.121 8.382 0 15.926-1.796 22.631-5.39V777.28zm90.525-33.242c14.967 0 26.462 3.564 34.485 10.691 8.023 7.128 12.034 17.88 12.034 32.255v55.164h-26.223V830.11c-5.269 8.985-15.087 13.477-29.456 13.477-7.424 0-13.86-1.258-19.309-3.774-5.448-2.515-9.609-5.99-12.483-10.422-2.874-4.432-4.31-9.463-4.31-15.094 0-8.984 3.382-16.052 10.148-21.203 6.765-5.151 17.212-7.727 31.342-7.727h22.272c0-6.11-1.856-10.81-5.568-14.105-3.712-3.295-9.28-4.942-16.704-4.942-5.149 0-10.208.809-15.177 2.426-4.97 1.617-9.19 3.804-12.663 6.559l-10.058-19.586c5.268-3.714 11.585-6.589 18.949-8.625 7.364-2.037 14.938-3.055 22.72-3.055zm-2.156 80.68c4.79 0 9.04-1.108 12.753-3.324 3.712-2.216 6.346-5.48 7.903-9.793v-9.883h-19.219c-11.495 0-17.242 3.774-17.242 11.32 0 3.594 1.406 6.44 4.22 8.536 2.814 2.096 6.676 3.144 11.585 3.144z"/>
    </g>
</svg>
