<svg xmlns="http://www.w3.org/2000/svg" width="24" height="24" viewBox="0 0 24 24">
    <path fill="#E9E2D8" fill-rule="evenodd" d="M12 24C5.373 24 0 18.627 0 12S5.373 0 12 0s12 5.373 12 12-5.373 12-12 12zm5.517-16.864c-.47.285-.989.492-1.544.603a2.395 2.395 0 0 0-1.772-.785c-1.34 0-2.428 1.115-2.428 2.49 0 .195.02.385.063.567-2.019-.104-3.808-1.094-5.007-2.603-.209.37-.328.798-.328 1.253 0 .864.428 1.627 1.08 2.073a2.38 2.38 0 0 1-1.1-.31v.03c0 1.207.837 2.214 1.949 2.442a2.367 2.367 0 0 1-1.097.044c.309.989 1.205 1.709 2.268 1.728a4.794 4.794 0 0 1-3.596 1.033 6.76 6.76 0 0 0 3.723 1.118c4.468 0 6.91-3.795 6.91-7.086a8.37 8.37 0 0 0-.006-.323c.475-.351.887-.79 1.211-1.289a4.757 4.757 0 0 1-1.394.392 2.487 2.487 0 0 0 1.068-1.377z"/>
</svg>
